# xmcd
#
# Track frame offsets: 
#        150
#        17372
#        31680
#        51505
#        68185
#        84057
#        101902
#        117247
#        137145
#        157032
#        174157
#        192120
#        207790
#
# Disc length: 2998 seconds
#
# Revision: 3
# Processed by: cddbd v1.5.2PL0 Copyright (c) Steve Scherf et al.
# Submitted via: ExactAudioCopy v0.99pb4
#
DISCID=a20bb40d
DTITLE=The Teens  - One More Chance
DYEAR=1999
DGENRE=Rock
TTITLE0=One more chance
TTITLE1=From dusk till dawn
TTITLE2=Never let you go
TTITLE3=Here i stand
TTITLE4=Gimme gimme 2000
TTITLE5=On the radio (RMX)
TTITLE6=Walking on sunshine
TTITLE7=She ain't mine
TTITLE8=Save a little lovin'
TTITLE9=Lose my heart
TTITLE10=Why don't you show me
TTITLE11=You really drive me mad
TTITLE12=Gimme the blues
EXTD=YEAR: 2000
EXTT0=
EXTT1=
EXTT2=
EXTT3=
EXTT4=
EXTT5=
EXTT6=
EXTT7=
EXTT8=
EXTT9=
EXTT10=
EXTT11=
EXTT12=
PLAYORDER=
